<svg width="48" height="48" viewBox="0 0 48 48" fill="none" xmlns="http://www.w3.org/2000/svg">
<path d="M7.05528 42.796L3.28503 0.506836H44.715L40.941 42.7896L23.9749 47.4932L7.05528 42.796Z" fill="#1572B6"/>
<path d="M24.0004 43.8983L37.71 40.0974L40.9354 3.9646H24.0004V43.8983Z" fill="#33A9DC"/>
<path d="M24.0004 19.2857H30.8636L31.3376 13.9746H24.0004V8.78796H37.0061L36.8816 10.1796L35.6066 24.4723H24.0004V19.2857Z" fill="white"/>
<path d="M24.0311 32.7558L24.0082 32.7625L18.2321 31.2029L17.8627 27.0663H12.657L13.3834 35.2102L24.0075 38.1588L24.0311 38.152V32.7558Z" fill="#EBEBEB"/>
<path d="M30.4226 24.2531L29.7978 31.1988L24.0131 32.7603V38.1566L34.6458 35.2098L34.7238 34.3334L35.6261 24.2531H30.4226Z" fill="white"/>
<path d="M24.018 8.78796V13.9746H11.49L11.3861 12.8091L11.1499 10.1796L11.0258 8.78796H24.018ZM24.0004 19.2865V24.4731H18.297L18.1931 23.3076L17.9565 20.6781L17.8328 19.2865H24.0004Z" fill="#EBEBEB"/>
</svg>
