<svg width="48" height="48" viewBox="0 0 48 48" fill="none" xmlns="http://www.w3.org/2000/svg">
<path d="M24.0002 28.2749C26.3612 28.2749 28.2752 26.3609 28.2752 23.9999C28.2752 21.6388 26.3612 19.7249 24.0002 19.7249C21.6392 19.7249 19.7252 21.6388 19.7252 23.9999C19.7252 26.3609 21.6392 28.2749 24.0002 28.2749Z" fill="#61DAFB"/>
<path d="M40.2376 16.9499C39.4126 16.6499 38.5501 16.3499 37.6501 16.0874C37.8751 15.1874 38.0626 14.2874 38.2126 13.4249C39.0001 8.47485 38.1376 4.98735 35.7376 3.63735C35.0251 3.22485 34.2376 3.03735 33.3376 3.03735C30.7126 3.03735 27.3751 4.98735 24.0001 8.24985C20.6251 4.98735 17.2876 3.03735 14.6626 3.03735C13.7626 3.03735 12.9751 3.22485 12.2626 3.63735C9.86265 5.02485 9.00015 8.51235 9.78765 13.4249C9.93765 14.2874 10.1251 15.1874 10.3501 16.0874C9.45015 16.3499 8.58765 16.6124 7.76265 16.9499C3.07515 18.7499 0.525146 21.2249 0.525146 23.9999C0.525146 26.7749 3.11265 29.2499 7.76265 31.0499C8.58765 31.3499 9.45015 31.6499 10.3501 31.9124C10.1251 32.8124 9.93765 33.7124 9.78765 34.5749C9.00015 39.5249 9.86265 43.0124 12.2626 44.3624C12.9751 44.7749 13.7626 44.9624 14.6626 44.9624C17.3251 44.9624 20.6626 43.0124 24.0001 39.7499C27.3751 43.0124 30.7126 44.9624 33.3376 44.9624C34.2376 44.9624 35.0251 44.7749 35.7376 44.3624C38.1376 42.9749 39.0001 39.4874 38.2126 34.5749C38.0626 33.7124 37.8751 32.8124 37.6501 31.9124C38.5501 31.6499 39.4126 31.3874 40.2376 31.0499C44.9251 29.2499 47.4751 26.7749 47.4751 23.9999C47.4751 21.2249 44.9251 18.7499 40.2376 16.9499ZM34.6876 5.51235C36.2251 6.41235 36.7501 9.18735 36.1126 13.1249C36.0001 13.9124 35.8126 14.7374 35.5876 15.5999C33.6376 15.1499 31.5751 14.8499 29.4001 14.6624C28.1251 12.8624 26.8126 11.2499 25.5001 9.78735C28.2751 7.04985 31.0876 5.17485 33.3751 5.17485C33.8626 5.17485 34.3126 5.28735 34.6876 5.51235ZM30.4876 27.7499C29.8126 28.9499 29.0251 30.1499 28.2001 31.3499C26.8126 31.4624 25.4251 31.4999 24.0001 31.4999C22.5376 31.4999 21.1501 31.4624 19.8001 31.3499C18.9751 30.1499 18.2251 28.9499 17.5501 27.7499C16.8376 26.5124 16.1626 25.2374 15.5626 23.9999C16.1626 22.7624 16.8376 21.4874 17.5501 20.2499C18.2251 19.0499 19.0126 17.8499 19.8376 16.6499C21.2251 16.5374 22.6126 16.4999 24.0376 16.4999C25.5001 16.4999 26.8876 16.5374 28.2376 16.6499C29.0626 17.8499 29.8126 19.0499 30.4876 20.2499C31.2001 21.4874 31.8751 22.7624 32.4751 23.9999C31.8376 25.2374 31.2001 26.4749 30.4876 27.7499ZM33.6001 26.5124C34.1626 27.8249 34.6126 29.0999 35.0251 30.3749C33.7501 30.6749 32.4001 30.8999 30.9751 31.0874C31.4251 30.3749 31.9126 29.6249 32.3251 28.8374C32.7751 28.0499 33.1876 27.2624 33.6001 26.5124ZM24.0001 36.6749C23.1001 35.6999 22.2376 34.6499 21.4126 33.5624C22.2751 33.5999 23.1376 33.6374 24.0001 33.6374C24.8626 33.6374 25.7251 33.5999 26.5876 33.5624C25.7626 34.6499 24.9001 35.6999 24.0001 36.6749ZM17.0251 31.0499C15.6001 30.8624 14.2501 30.6374 12.9751 30.3374C13.3876 29.0999 13.8376 27.7874 14.4001 26.4749C14.8126 27.2249 15.2251 28.0124 15.6751 28.7624C16.1251 29.5874 16.5751 30.2999 17.0251 31.0499ZM14.4001 21.4874C13.8376 20.1749 13.3876 18.8999 12.9751 17.6249C14.2501 17.3249 15.6001 17.0999 17.0251 16.9124C16.5751 17.6249 16.0876 18.3749 15.6751 19.1624C15.2251 19.9499 14.8126 20.7374 14.4001 21.4874ZM24.0001 11.3249C24.9001 12.2999 25.7626 13.3499 26.5876 14.4374C25.7251 14.3999 24.8626 14.3624 24.0001 14.3624C23.1376 14.3624 22.2751 14.3999 21.4126 14.4374C22.2376 13.3499 23.1001 12.2999 24.0001 11.3249ZM32.3251 19.1999L30.9751 16.9499C32.4001 17.1374 33.7501 17.3624 35.0251 17.6624C34.6126 18.8999 34.1626 20.2124 33.6001 21.5249C33.1876 20.7374 32.7751 19.9499 32.3251 19.1999ZM11.8876 13.1249C11.2501 9.18735 11.7751 6.41235 13.3126 5.51235C13.6876 5.28735 14.1376 5.17485 14.6251 5.17485C16.8751 5.17485 19.6876 7.01235 22.5001 9.78735C21.1876 11.2124 19.8751 12.8624 18.6001 14.6624C16.4251 14.8499 14.3626 15.1874 12.4126 15.5999C12.1876 14.7374 12.0376 13.9124 11.8876 13.1249ZM2.62515 23.9999C2.62515 22.2374 4.76265 20.3624 8.51265 18.9749C9.26265 18.6749 10.0876 18.4124 10.9126 18.1874C11.5126 20.0624 12.2626 22.0499 13.1626 24.0374C12.2626 26.0249 11.4751 27.9749 10.9126 29.8499C5.73765 28.3499 2.62515 26.0999 2.62515 23.9999ZM13.3126 42.4874C11.7751 41.5874 11.2501 38.8124 11.8876 34.8749C12.0001 34.0874 12.1876 33.2624 12.4126 32.3999C14.3626 32.8499 16.4251 33.1499 18.6001 33.3374C19.8751 35.1374 21.1876 36.7499 22.5001 38.2124C19.7251 40.9499 16.9126 42.8249 14.6251 42.8249C14.1376 42.8249 13.6876 42.7124 13.3126 42.4874ZM36.1126 34.8749C36.7501 38.8124 36.2251 41.5874 34.6876 42.4874C34.3126 42.7124 33.8626 42.8249 33.3751 42.8249C31.1251 42.8249 28.3126 40.9874 25.5001 38.2124C26.8126 36.7874 28.1251 35.1374 29.4001 33.3374C31.5751 33.1499 33.6376 32.8124 35.5876 32.3999C35.8126 33.2624 35.9626 34.0874 36.1126 34.8749ZM39.4876 29.0249C38.7376 29.3249 37.9126 29.5874 37.0876 29.8124C36.4876 27.9374 35.7376 25.9499 34.8376 23.9624C35.7376 21.9749 36.5251 20.0249 37.0876 18.1499C42.2626 19.6499 45.3751 21.8999 45.3751 23.9999C45.3751 25.7624 43.2001 27.6374 39.4876 29.0249Z" fill="#61DAFB"/>
</svg>
